<svg width="340" height="150" viewBox="0 0 340 150" xmlns="http://www.w3.org/2000/svg">
  <rect width="340" height="150" rx="10" fill="#111111"/>
  
  <!-- Main Logo -->
  <path fill="#ffffff" d="M100 20l10-0.2-0.8-24-9-2.5v4.4c-0.4 2.5-0.6 5.8-0.7 8.3v7.7l0 4zM6 27l12.6-1.1 9.7 0.1 3.6 0 1.5 4.7 3.3 32.3 3.3 37.4-10-0.3-1.5-0.6-0.9-22.4-10.2 0.6 1.2 22.1-2.7 0-11.4 0-2.9-0.3 1.2-44.8zM43 100l1.2-72.5 11.9-0.9 5.4 0.6 5.1 34.7 3-35.8 20.5 2.5c0.1 3.8 0.2 7.7 0.2 11.8 0.4 6.9 0.9 15.9 0.9 24.2 0.3 13.4-0.1 23 0.8 35.6l-8.8-0.2-0.7-44.9-1.9-0.4-5 39.8-1.7 4.9-10.6 0.6-5.1-42-3 0.7 1.1 41.9zM108 67l10-0.5-0.3-13.9-2.5-9.7-6.2-0.5zM110 26l6.4 0 13.1 0.9 2.7 36.3 1 36.2-3 0.2-11.3 0.5-1.2 0-0.9-22.5-9.4-0.6-2.5 23-9.8 0.3 3.2-37.4 2.9-21.4 2.1-15zM149 38l0.3 7.9 0 10.3 3.6 0 3.5-0.3 2.3-2.2 0-1 0.4-6.8-0.8-6.1 0-0.2-1.1-4-2.7-1.2-5.2 0zM148 26l13.1 0.2 6.2 0.7 5.1 2.9 4 6.6-1.3 19.3-1.6 3-5.9 1.9 6.7 5 1.8 4.9 0 8-0.9 21.2-2.6 0.6-10.3-0.5-0.5-19.5-0.7-10.3-2.4-2.6-4.6-1.5 0 7.4 0 18.6 0.3 7.8-9.7-0.1-4.6 0.3-1.6-0.3 0-14.4 0-10.5 0.6-13.6-0.4-23.4-0.2-11.6zM183 44l16 0.4-0.8 12.5 1.2 25.4-0.7 16.9-1.4 0.2-14-0.3-0.6-4.6-0.2-26.8zM184 25l15.1 0.2 0.7 3.9 0 6.7-0.4 3.6-16 0.1-0.5-6.5-0.2-7zM237 28l2.6 4.3 0 12.2-0.3 6.2-13.4-0.7 0-3.9 0-5.3-6.6 0.1-1.1 2.8 1.1 13.6 10.3 0.6 10 1.2 0.3 12.7 0 9-1.3 15.7-9 4.4-13.2-0.6-6-2.4-3-2.3-1.4-7.3 0.5-12.4 0.5-4 3.4 0.2 7.8 0.9 0 3 0 3.3 0 1.7 0 2.7 9.4 1.1 0.3-18-19.9-1.1-0.8-22-0.2-14.4 3.3-2.4c2.3-0.1 4.3-0.3 6.2-0.5 3.2-0.3 6.4-0.5 7.1-0.5 0.5 0 2.3 0.1 4 0.2l3.2 0.2zM277 28l2.6 4.3 0 12.2-0.3 6.2-13.4-0.7 0-3.9 0-5.3-6.6 0.1-1.1 2.8 1.1 13.6 10.3 0.6 10 1.2 0.3 12.7 0 9-1.3 15.7-9 4.4-13.2-0.6-6-2.4-3-2.3-1.4-7.3 0.5-12.4 0.5-4 3.4 0.2 7.8 0.9 0 3 0 3.3 0 1.7 0 2.7 9.4 1.1 0.3-18-19.9-1.1-0.8-22-0.2-14.4 3.3-2.4c2.3-0.1 4.3-0.3 6.2-0.5 3.2-0.3 6.4-0.5 7.1-0.5 0.5 0 2.3 0.1 4 0.2l3.2 0.2z"/>
  
  <!-- Bottom Text -->
  <path fill="#ffffff" d="M50 130h-2V80h2v70zm4 0h-2V80h2v70zm4 0h-2V80h2v70zm4 0h-2V80h2v70zm34-90h-25v1h25v2h-25v1h25v2h-25v1h25v2h-25v1h25v2h-25v13h18v2h-18v1h18v2h-18v1h18v2h-18v1h18v2h-18v1h18v2h-18v10h25v2h-25v1h25v2h-25v1h25v2h-25v1h25v2h-25v1h25v2h-28V80h28v2zm38 90h-2V80h2v70zm4 0h-2V80h2v70zm4 0h-2V80h2v70zm4 0h-2V80h2v70zm34-90h-25v1h25v2h-25v1h25v2h-25v1h25v2h-25v1h25v2h-25v13h18v2h-18v1h18v2h-18v1h18v2h-18v1h18v2h-18v10h25v2h-25v1h25v2h-25v1h25v2h-25v1h25v2h-25v1h25v2h-28V80h28v2zm38 90h-2v-70h2v70zm4 0h-2v-70h2v70zm4 0h-2v-70h2v70zm4 0h-2v-70h2v70zm34-87h-27v1h27v2h-27v1h27v2h-27v1h27v2h-27v1h27v2h-27v1h27v2h-27v1h27v2h-27v1h27v2h-27v1h27v2h-28v-70h28v2zm38 87h-2v-70h2v70zm4 0h-2v-70h2v70zm4 0h-2v-70h2v70zm4 0h-2v-70h2v70zm34-90h-25v1h25v2h-25v1h25v2h-25v1h25v2h-25v1h25v2h-25v13h18v2h-18v1h18v2h-18v1h18v2h-18v1h18v2h-18v10h25v2h-25v1h25v2h-25v1h25v2h-25v1h25v2h-25v1h25v2h-28V80h28v2zm38 90h-2v-31h2v31zm4 0h-2v-31h2v31zm4 0h-2v-31h2v31zm4 0h-2v-31h2v31zm-34-67c7.6 0 15 2.8 20.8 7.8l-1.4 1.6c-5.4-4.7-12.2-7.2-19.4-7.2-16.3 0-29.6 13.3-29.6 29.6s13.3 29.6 29.6 29.6h6.6v-1h-6.6c-15.8 0-28.6-12.8-28.6-28.6s12.8-28.6 28.6-28.6c6.8 0 13.3 2.4 18.5 6.8l-1.4 1.6c-4.8-4.1-10.8-6.3-17.1-6.3-14.6 0-26.4 11.9-26.4 26.4s11.9 26.4 26.4 26.4h6.6v-1h-6.6c-14 0-25.4-11.4-25.4-25.4s11.4-25.4 25.4-25.4c5.9 0 11.7 2.1 16.2 5.9l-1.4 1.7c-4.1-3.5-9.4-5.4-14.8-5.4-12.8 0-23.2 10.4-23.2 23.2s10.4 23.2 23.2 23.2h6.6v-1h-6.6c-12.3 0-22.2-10-22.2-22.2s10-22.2 22.2-22.2c5.1 0 10 1.8 14 4.9l-1.4 1.7c-3.6-2.9-8-4.5-12.6-4.5-11 0-20.3 9.3-20.3 20.3s9.3 20.3 20.3 20.3h6.6v-15h2v31h-8.7c-19.3 0-35-15.7-35-35s15.7-35 35-35c8.5 0 16.6 3.1 23 8.7l-1.4 1.6c-6-5.3-13.6-8.1-21.6-8.1-18.1 0-32.8 14.7-32.8 32.8s14.7 32.8 32.8 32.8h6.6v-1h-6.6c-17.5 0-31.8-14.2-31.8-31.8s14.2-31.8 31.8-31.8zm75-4h2.4l-29.2 70h-2.4zm4 0h2.4l-29.2 70h-2.4zm4 0h2.4l-29.2 70h-2.4zm4 0h2.4l-29.2 70h-2.4zm34.2 70h-27.9-0.6l29.2-67.7-0.6 1.4 27.3 62.6-2.4 0-26.1-42-0.6 1.4 25.5 40.6-2.4 0-24.4-39.2-0.6 1.4 23.8 37.8-2.4 0-22.6-36.4-0.6 1.4 22 34.8-2.4 0-5.2-12.8-31.4 0-5.3 12.8h-2.4l29.2-70h2.8l28.8 70h-2.4zm-25.9-15h-0.5-31.4-0.5h32.4zm-1.4-3.3h-0.5-28.1-0.5h29.1zm-1.4-3.3h-0.5-24.8-0.5h25.8zm-1.4-3.3h-0.5-21.5-0.5h22.5zm-1.4-3.3h-9.3-22.8-0.5h32.6zm38.4 28.3h-2v-70h2v70zm4 0h-2v-70h2v70zm4 0h-2v-70h2v70zm4 0h-2v-70h2v70zm43-70h2v70h-2.7l-41-66-0.3 1.9 39.8 64.1-2.5 0-37.3-60.1-0.3 1.9 36.1 58.2-2.5 0-33.6-54.1-0.3 1.9 32.4 52.2-2.5 0-29.9-48.1-0.3 1.9 28.7 46.2-2.5 0-26.2-42.2v42.2h-2v-45.6-0.4v-24.1h2.4l28 45v-45h2v48.5l1.2 1.9v-50.4h2.2v53.9l1.2 1.9v-55.7h2v59.2l1.2 1.9v-61.1h2v64.6l1.2 1.9v-66.5zm38.4 8c0-12.3 10-22.4 22.4-22.4h4.3v2h-4.3c-11.1 0-20.2 9.1-20.2 20.2s9.1 20.2 20.2 20.2h4.3v2h-4.3c-12.3 0-22.4-10-22.4-22.4zm-3.1 0c0-14.1 11.4-25.5 25.5-25.5h4.3v2h-4.3c-12.9 0-23.3 10.5-23.3 23.3s10.5 23.3 23.3 23.3h4.3v2h-4.3c-14.1 0-25.5-11.4-25.5-25.5zm-3.1 0c0-15.8 12.9-28.6 28.6-28.6h4.3v2h-4.3c-14.6 0-26.5 11.9-26.5 26.5s11.9 26.5 26.5 26.5h4.3v2h-4.3c-15.8 0-28.6-12.8-28.6-28.6zm-3.1 0c0-17.5 14.3-31.8 31.8-31.8h4.3v2h-4.3c-16.3 0-29.6 13.3-29.6 29.6s13.3 29.6 29.6 29.6h4.3v2h-4.3c-17.5 0-31.8-14.3-31.8-31.8zm34.2-33.9h4.3v2h-4.3c-18.1 0-32.8 14.7-32.8 32.8s14.7 32.8 32.8 32.8h4.3v2h-4.3c-19.2 0-34.9-15.7-34.9-34.9s15.7-34.9 34.9-34.9zm19.4 33.9h-2v-70h2v70zm4 0h-2v-70h2v70zm4 0h-2v-70h2v70zm4 0h-2v-70h2v70zm34-90h-25v1h25v2h-25v1h25v2h-25v1h25v2h-25v1h25v2h-25v13h18v2h-18v1h18v2h-18v1h18v2h-18v1h18v2h-18v10h25v2h-25v1h25v2h-25v1h25v2h-25v1h25v2h-25v1h25v2h-28V80h28v2z"/>
</svg>